<svg width="533" height="468" viewBox="0 0 533 468" fill="none" xmlns="http://www.w3.org/2000/svg">
  <g id="money">
    <g id="Background">
      <path id="Vector2" d="M14.7018 367.666C-43.4299 291.348 84.7942 212.512 156.173 182.633C190.683 165.56 276.552 125.779 343.943 103.242C411.335 80.7053 498.061 124.584 533 149.34C481.985 142.084 395.001 152.029 455.191 249.86C530.428 372.148 278.995 445.777 237.84 445.777C196.685 445.777 87.3664 463.064 14.7018 367.666Z" fill="url(#paint0_linear_1_29)"/>
    </g>
    <g id="B1">
      <rect id="Rectangle1" x="58" y="330" width="52" height="40" fill="url(#paint1_linear_1_29)"/>
    </g>
    <g id="B5">
      <rect id="Rectangle5" x="310" y="144" width="52" height="226" fill="url(#paint2_linear_1_29)"/>
    </g>
    <g id="B2">
      <rect id="Rectangle2" x="121" y="313" width="52" height="57" fill="url(#paint3_linear_1_29)"/>
    </g>
    <g id="B3">
      <rect id="Rectangle3" x="184" y="288" width="52" height="82" fill="url(#paint4_linear_1_29)"/>
    </g>
    <g id="B4">
      <rect id="B4_2" x="247" y="233" width="52" height="137" fill="url(#paint5_linear_1_29)"/>
    </g>
    <g id="B6">
      <rect id="Rectangle6" x="373" width="52" height="370" fill="url(#paint6_linear_1_29)"/>
    </g>
    <g id="Base">
      <rect id="Rectangle6_2" x="55" y="402" width="16" height="370" transform="rotate(-90 55 402)" fill="#22E040"/>
    </g>
    <g id="Coinframe">
      <ellipse id="Ellipse1" cx="434.5" cy="370" rx="98.5" ry="98" fill="#73CE18"/>
      <ellipse id="Ellipse2" cx="434.5" cy="370" rx="81.5" ry="81" fill="url(#paint7_linear_1_29)"/>
    </g>
    <g id="Symbol">
      <path id="$" d="M430.851 438.636V302.273H439.587V438.636H430.851ZM456.046 345.898C455.549 341.246 453.454 337.624 449.761 335.032C446.103 332.44 441.344 331.143 435.485 331.143C431.366 331.143 427.832 331.765 424.885 333.008C421.938 334.251 419.683 335.937 418.12 338.068C416.558 340.199 415.759 342.631 415.723 345.366C415.723 347.638 416.238 349.609 417.268 351.278C418.333 352.947 419.771 354.368 421.582 355.54C423.393 356.676 425.4 357.635 427.602 358.416C429.803 359.197 432.023 359.854 434.26 360.387L444.487 362.944C448.607 363.903 452.566 365.199 456.366 366.832C460.201 368.466 463.628 370.526 466.646 373.011C469.7 375.497 472.115 378.498 473.891 382.013C475.666 385.529 476.554 389.648 476.554 394.371C476.554 400.763 474.92 406.392 471.653 411.257C468.386 416.087 463.663 419.869 457.484 422.603C451.341 425.302 443.901 426.651 435.165 426.651C426.678 426.651 419.31 425.337 413.06 422.71C406.845 420.082 401.98 416.246 398.464 411.204C394.984 406.161 393.102 400.018 392.818 392.773H412.261C412.545 396.573 413.717 399.734 415.776 402.255C417.836 404.776 420.517 406.658 423.82 407.901C427.158 409.144 430.886 409.766 435.006 409.766C439.303 409.766 443.067 409.126 446.298 407.848C449.565 406.534 452.122 404.723 453.969 402.415C455.815 400.071 456.756 397.337 456.792 394.212C456.756 391.371 455.922 389.027 454.288 387.18C452.655 385.298 450.364 383.736 447.417 382.493C444.505 381.214 441.096 380.078 437.19 379.084L424.778 375.888C415.794 373.58 408.692 370.082 403.472 365.394C398.287 360.671 395.695 354.403 395.695 346.591C395.695 340.163 397.435 334.535 400.915 329.705C404.43 324.876 409.207 321.129 415.244 318.466C421.281 315.767 428.116 314.418 435.751 314.418C443.493 314.418 450.276 315.767 456.099 318.466C461.959 321.129 466.558 324.84 469.896 329.599C473.234 334.322 474.956 339.755 475.062 345.898H456.046Z" fill="url(#paint8_linear_1_29)"/>
    </g>
    <g id="Arrow">
      <path id="Vector1" d="M51 272C91.3333 273.333 197.4 236.8 299 80" stroke="#00FF38" stroke-width="15"/>
      <path id="Polygon1" d="M323.126 42.1208L315.672 89.6209L283.367 69.1595L323.126 42.1208Z" fill="#00FF38"/>
    </g>
  </g>
  <defs>
    <linearGradient id="paint0_linear_1_29" x1="266.5" y1="97" x2="266.5" y2="447" gradientUnits="userSpaceOnUse">
      <stop stop-color="#B0F99E"/>
      <stop offset="1" stop-color="#245C34"/>
    </linearGradient>
    <linearGradient id="paint1_linear_1_29" x1="84" y1="330" x2="84" y2="370" gradientUnits="userSpaceOnUse">
      <stop stop-color="#159028"/>
      <stop offset="1" stop-color="#0B4615"/>
    </linearGradient>
    <linearGradient id="paint2_linear_1_29" x1="336" y1="144" x2="336" y2="370" gradientUnits="userSpaceOnUse">
      <stop stop-color="#159028"/>
      <stop offset="1" stop-color="#0B4615"/>
    </linearGradient>
    <linearGradient id="paint3_linear_1_29" x1="147" y1="313" x2="147" y2="370" gradientUnits="userSpaceOnUse">
      <stop stop-color="#159028"/>
      <stop offset="1" stop-color="#0B4615"/>
    </linearGradient>
    <linearGradient id="paint4_linear_1_29" x1="210" y1="288" x2="210" y2="370" gradientUnits="userSpaceOnUse">
      <stop stop-color="#159028"/>
      <stop offset="1" stop-color="#0B4615"/>
    </linearGradient>
    <linearGradient id="paint5_linear_1_29" x1="273" y1="233" x2="273" y2="370" gradientUnits="userSpaceOnUse">
      <stop stop-color="#159028"/>
      <stop offset="1" stop-color="#0B4615"/>
    </linearGradient>
    <linearGradient id="paint6_linear_1_29" x1="398" y1="0" x2="398" y2="370" gradientUnits="userSpaceOnUse">
      <stop stop-color="#159028"/>
      <stop offset="1" stop-color="#0B4615"/>
    </linearGradient>
    <linearGradient id="paint7_linear_1_29" x1="434.5" y1="288.5" x2="434.5" y2="451" gradientUnits="userSpaceOnUse">
      <stop stop-color="#4B8C00"/>
      <stop offset="1" stop-color="#8DD951"/>
    </linearGradient>
    <linearGradient id="paint8_linear_1_29" x1="431.222" y1="309.177" x2="437.987" y2="440.98" gradientUnits="userSpaceOnUse">
      <stop stop-color="#9BE20C"/>
      <stop offset="1" stop-color="#3A7E00"/>
    </linearGradient>
  </defs>
</svg>
